<?xml version="1.0" ?><!DOCTYPE svg  PUBLIC '-//W3C//DTD SVG 1.1//EN'  'http://www.w3.org/Graphics/SVG/1.1/DTD/svg11.dtd'><svg height="512px" style="enable-background:new 0 0 512 512;" version="1.1" viewBox="0 0 512 512" width="512px" xml:space="preserve" xmlns="http://www.w3.org/2000/svg" xmlns:xlink="http://www.w3.org/1999/xlink"><g id="army_x2C__military_x2C__war_x2C__weapon__x2C_navy_x2C__aviation_x2C___ak47__x2C__gun__x2C_"><g><path d="M477.564,231.561c-0.62-0.972-2.023-1.592-4.434-1.997c-1.592-0.287-4.641-0.845-8.509-1.456    c-17.035-2.987-48.586-8.526-56.825-9.624c-2.096-0.279-3.813-0.342-5.415-0.342c-3.543,0-5.459,0.611-7.204,1.24    c-1.034,0.343-1.942,0.621-3.103,0.757c-0.685,0.144-1.476,0.144-2.357,0.144c-3.66,0-7.969-0.701-8.382-0.765    c-0.621-0.136-10.38-2.42-13.626-3.247c-1.035-0.216-1.943-0.359-2.708-0.359c-1.376,0-1.942,0.422-2.141,0.701l-0.144,0.207    l-0.072,0.207c0,0,0,0,0,0.071c-2.636-0.414-6.493-1.043-6.493-1.043l-2.51-0.899c-0.126-4.426-5.459-7.951-6.988-8.302    c0.071-0.207,0.152-0.423,0.152-0.62c0-1.602-4.083-7.682-9.345-7.682H234.101c0-0.144,0-0.216,0-0.216l-1.233-0.899h-1.816    v-0.216h5.261c0,0,0-2.627,0-3.598c0-0.972-0.054-1.169-1.034-1.169c-1.448,0-2.482,2.347-2.482,2.347h-2.932    c-0.189-1.033-0.954-1.727-1.862-1.727c-0.89,0-1.655,0.693-1.844,1.727h-0.567c-2.635-2.212-6.916-0.62-6.916-0.62h-2.24    l-0.54-0.558h-3.193c-1.799-2.626-3.391,0-3.391,0h-2.905v0.899h-0.81l0,0c-0.369-0.413-0.765-0.611-1.403-0.611    c-2.905,0-3.391,1.52-3.391,3.598c0,0.27,0,0.62,0,0.971c-0.126-0.071-0.423-0.144-0.621-0.144c-0.342,0-0.612,0.072-0.765,0.216    c0-0.359,0-0.701,0-0.846c0-0.827-0.144-1.241-1.295-1.241c-0.422,0-0.719,0-0.989,0c-0.072-0.071-0.072-0.135-0.144-0.207    c-0.467-0.485-1.232-0.692-2.563-0.692c-1.646,0-11.63,0.207-22.126,0.414c-10.334,0.144-20.983,0.351-22.656,0.351    c-1.178,0-2.06,0.342-2.699,0.972c-0.351,0-0.818,0-1.304,0c-1.035,0-3.247,0-3.247,2.698v-0.485c0,0-25.895,0-36.354,0    c-0.27,0-0.558,0.063-0.756,0.063c-0.072,0-0.153,0-0.225,0c-0.198,0-0.342,0.072-0.468,0.072c-0.072,0-0.144,0-0.297,0    c-0.117,0.071-0.27,0.071-0.342,0.144c-0.126,0-0.198,0-0.27,0c-0.144,0.063-0.27,0.063-0.342,0.144c-0.072,0-0.153,0-0.198,0.063    c-0.144,0-0.297,0.063-0.422,0.135c-0.072,0-0.144,0-0.216,0.071c-0.125,0.073-0.27,0.136-0.468,0.199l0,0    c-0.153,0.144-0.369,0.215-0.494,0.287c-0.072,0.072-0.072,0.072-0.144,0.072c-0.072,0.126-0.198,0.207-0.351,0.27    c0,0-0.072,0.072-0.144,0.072c-0.045,0.144-0.197,0.206-0.27,0.27c-0.072,0.072-0.072,0.072-0.126,0.145    c-0.072,0.071-0.216,0.144-0.297,0.278c-0.045,0-0.045,0.063-0.117,0.063c-0.072,0.145-0.225,0.217-0.341,0.352v0.063    c-2.167,2.356-3.346,5.819-5.685,8.311c-0.566,0.558-1.178,1.115-1.871,1.529h-0.342h-0.072c-1.376,0.756-3.049,1.17-4.992,1.17    h-0.198v0.144c-0.072,0-0.153,0.063-0.225,0.144H58.209v-2.213l-7.546-14.688c0.494-0.342,0.908-1.385,0.908-2.563    c0-1.521-0.639-2.762-1.331-2.762h-1.862h-0.081h-3.041h-0.548h-1.376c-0.71,0-1.25,1.241-1.25,2.762    c0,1.178,0.342,2.148,0.836,2.563h-0.225v0.207c0.072,0.072,1.034,5.612,0.072,9.696c0,0,0,0-0.072,0    c-0.27,0-0.684,0.071-0.684,0.071l-0.153,0.072v3.589c0,0.207-1.151,2.978-2.977,2.978v0.287h-2.482H36.2    c-1.25,0-2.212,1.655-2.212,3.732s0.962,3.805,2.212,3.805h0.198h4.425c0,0,2.779,0.342,4.308,3.741    c0.198,0,2.482,0.756,5.189,0.145c0.414,0,0.836,0,1.304,0h47.409c0.639,0.962,1.673,1.871,3.346,1.871c1.646,0,1.646,0,1.646,0    s0.225-1.602,1.332-1.602v-0.27h39.862c0.495,2.761,2.833,2.761,6.44,2.761c1.457,0,3.741,0.279,6.719,0.692    c5.531,0.756,13.923,1.943,23.808,1.943c13.995,0,23.043,1.025,28.521,3.255c1.232,0.549,2.563,0.685,3.67,0.685l0,0    c0.54,0,1.106-0.072,1.718-0.072c0.639,0,1.259-0.063,1.943-0.063c0.566,0,0.989-0.144,1.331-0.484    c0.126-0.136,0.198-0.279,0.27-0.424c1.25-0.125,1.943-0.611,2.357-1.313l0.396,0.144h0.153c0.215,0,9.488,0.486,20.408,1.044    l3.273,2.626c-0.072,1.654-0.836,8.859-5.343,18.618c-4.623,10.18-14.454,25.268-34.816,39.246l-0.125,0.072    c-0.423,0.484-0.225,0.898,0.468,2.086c0.414,0.684,1.034,1.727,1.798,2.969c1.323,2.141,3.193,5.055,5.55,8.725    c4.011,6.223,8.167,12.52,8.167,12.592l0.423,0.557l0.54-0.27c0.144-0.072,12.322-6.854,25.4-20.848    c11.09-11.838,24.869-31.139,30.4-58.009c0.837-0.063,2.141-0.063,2.779,0.63h0.27c0,2.77,0.27,5.54,1.799,6.224l0,0    c0,0,0.756,4.442,1.718,5.819c-0.071,0,1.106,0,1.106,0v-2.284c0,0-0.881-1.179,0-2.078h0.495v-1.457    c0.413-0.27,0.684-0.899,1.592,0.144c0,0,0.27,0,0.692,0c0.765,1.313,2.779,3.184,7.744,3.454    c2.015,0.072,3.957,0.216,5.756,0.287c3.391,0.198,6.566,0.414,9.84,0.414c0.611,0,1.151,0,1.79,0    c3.4-0.071,5.118-1.385,6.152-2.626c1.034,1.025,2.356,3.112,4.227,7.682c4.507,11.201,8.393,18.883,9.543,24.836    c1.106,5.973,0.567,7.971,9.84,7.07c9.273-0.973,12.322-7.609,12.125-10.738c-0.226-3.113-6.521-16.186-8.464-21.799    c-1.916-5.603-2.411-8.238-1.034-11c1.105-2.077,2.141-5.747,1.87-7.474h0.567l1.304-2.428c1.673,0.342,5.189,1.24,7.204,1.663    c0.495,0.063,0.963,0.207,1.305,0.279c0.494,2.482,4.92,4.218,11.782,6.781c2.06,0.828,4.497,1.727,6.979,2.698    c10.253,4.156,72.745,32.806,80.444,37.231c2.015,1.188,3.886,1.816,5.388,1.816c3.463,0,5.63-2.914,6.026-8.113    c0.413-8.85,7.348-39.587,8.04-42.636C477.979,234.133,478.32,232.748,477.564,231.561L477.564,231.561z M231.339,207.33    L231.339,207.33h-8.877l0,0H231.339L231.339,207.33z M221.355,211.701L221.355,211.701L221.355,211.701c-0.072,0-0.188,0-0.342,0    H221.355z M145.984,210.101L145.984,210.101L145.984,210.101h5.189h0.072c3.175-0.899,6.098-1.377,8.932-1.377    c3.049,0,5.333,0.478,7.205,0.963c1.106,0.217,1.987,0.414,2.752,0.414h7.276h0.081c2.824-0.899,5.532-1.313,7.942-1.313    c2.698,0,4.641,0.559,6.018,0.899c0.566,0.217,1.115,0.342,1.529,0.414c-0.684,0.144-0.836,0.629-0.962,0.972    c-0.144,0.413-0.27,0.898-2.356,0.898h-9.489c-0.738,0-0.819-0.063-0.891-0.27c-0.225-0.629-0.612-1.043-1.943-1.043h-11.144    c-1.322,0-1.664,0.414-1.861,1.043c-0.081,0.207-0.153,0.27-0.99,0.27h-9.048c-0.765,0-0.836-0.063-0.909-0.27    c-0.198-0.629-0.611-1.043-1.871-1.043h-4.767h-1.673v2.914h-1.925v-3.472H145.984z M106.121,210.586L106.121,210.586v-1.034    h17.701h11.441l0.468,0.477l-1.035,3.544h-28.458v-1.457h-0.117V210.586z M44.223,207.69L44.223,207.69    c0-1.602,1.322-2.915,2.896-2.915h5.612l2.923,5.811h-8.535C45.545,210.586,44.223,209.272,44.223,207.69L44.223,207.69z     M52.192,223.188L52.192,223.188c0.836-1.035,1.646-2.078,1.646-2.078h2.239H86.37c0.072,0,0.153,0.071,0.225,0.071v0.073h2.482    c-0.27,0.197-0.495,0.476-0.495,0.827c0,0.62,0.495,1.034,1.062,1.034h8.508v0.072H52.192z M105.357,223.115L105.357,223.115h0.54    c0.611,0,1.034-0.414,1.034-1.034c0-0.414-0.27-0.756-0.692-0.972l0,0h28.602h6.152v2.078h-35.635V223.115z M314.193,250.188    L314.193,250.188c-3.732,0.063-7.474-0.135-11.432-0.423c-1.798-0.063-3.714-0.206-5.729-0.27    c-4.92-0.278-5.954-2.285-6.026-2.572v-9.543c0.144-0.063,0.27-0.144,0.414-0.278c0.152-0.207,0.27-0.342,0.351-0.486    c0.144-0.207,0.342-0.485,2.554-0.485c2.356,0,7.816,0.278,10.865,0.414c1.26,0.071,2.141,0.144,2.563,0.216    c0.765,0.557,1.521,1.583,1.521,3.256c0,3.31,0.494,5.117-5.388,7.681c-0.145-0.144-0.288,0.899,1.573,0.684    c1.943-0.27,4.039-2.141,4.776-3.247c0.765-1.178,2.581-5.189,2.627-5.747l2.023-0.558c0,0,1.942-0.756,2.554-1.997h0.297v4.911    c0,0-0.765,2.968,0,5.811c0.117,0.62,0.342,0.899,0.611,1.106C317.666,249.423,316.406,250.116,314.193,250.188L314.193,250.188z" style="fill:#010101;"/></g></g><g id="Layer_1"/></svg>