<?xml version="1.0" ?><svg viewBox="0 0 32 32" xmlns="http://www.w3.org/2000/svg"><defs><style>.cls-1{fill:none;}</style></defs><title/><g data-name="Layer 2" id="Layer_2"><path d="M22,19a1,1,0,0,1-.7-.28l-4.24-4.1a6.67,6.67,0,0,1,0-9.64h0a7.17,7.17,0,0,1,9.88,0,6.67,6.67,0,0,1,0,9.64l-4.24,4.1A1,1,0,0,1,22,19ZM22,5a5.07,5.07,0,0,0-3.55,1.42h0a4.66,4.66,0,0,0,0,6.76L22,16.61l3.55-3.43a4.66,4.66,0,0,0,0-6.76A5.09,5.09,0,0,0,22,5Zm-4.24.7h0Z"/><path d="M11,29a1,1,0,0,1-.5-.13l-7-4A1,1,0,0,1,3,24V6a1,1,0,0,1,.5-.87,1,1,0,0,1,1,0l7,4A1,1,0,0,1,12,10V28a1,1,0,0,1-.5.87A1,1,0,0,1,11,29ZM5,23.42l5,2.86V10.58L5,7.72Z"/><path d="M11,29a1,1,0,0,1-.5-.13A1,1,0,0,1,10,28V10a1,1,0,0,1,.5-.87l6-3.43a1,1,0,0,1,1.37.38,1,1,0,0,1-.37,1.36L12,10.58v15.7l5.5-3.15a1,1,0,1,1,1,1.74l-7,4A1,1,0,0,1,11,29Z"/><path d="M25,29a1,1,0,0,1-.5-.13l-7-4A1,1,0,0,1,17,24V15a1,1,0,0,1,2,0v8.42l5,2.86V16a1,1,0,0,1,2,0V28a1,1,0,0,1-.5.87A1,1,0,0,1,25,29Z"/><path d="M22,13a3,3,0,1,1,3-3A3,3,0,0,1,22,13Zm0-4a1,1,0,1,0,1,1A1,1,0,0,0,22,9Z"/></g><g id="frame"><rect class="cls-1" height="32" width="32"/></g></svg>