<?xml version="1.0" ?><!DOCTYPE svg  PUBLIC '-//W3C//DTD SVG 1.1//EN'  'http://www.w3.org/Graphics/SVG/1.1/DTD/svg11.dtd'><svg height="512px" style="enable-background:new 0 0 512 512;" version="1.1" viewBox="0 0 512 512" width="512px" xml:space="preserve" xmlns="http://www.w3.org/2000/svg" xmlns:xlink="http://www.w3.org/1999/xlink"><g id="gun_x2C__military_x2C__weapon_x2C__military"><g><path d="M423.549,208.108c-0.483-0.062-1.101-0.133-1.863-0.133c-4.557-0.278-14.017-0.763-19.193-17.75    l-0.063-0.062l-3.595-5.664c-0.277-1.174-0.621-2.353-1.036-3.518c0-0.069,0-0.069,0-0.069l0.205,0.344    c0,0-0.205-0.619-0.272-1.661c0.067-0.967,0.34-2.207,1.309-3.587c2.899-3.797,3.592-6.838,3.524-8.983    c0.138-4.414-3.247-6.763-5.806-6.484c-0.061,0-0.135-0.071-0.206-0.071c-0.688,0-1.242,0.137-1.796,0.416    c-2.828,1.447-6.691,2.145-7.866,2.349c-0.76-0.902-1.451-1.727-2.144-2.486l-5.521-8.29h-1.451    c-0.139-0.204-0.276-0.34-0.276-0.34l-0.206-0.278h-10.979c-1.036-2.071-2.005-4.281-2.349-4.97c-0.685-1.448-4.489-1.038-5.589,0    c-0.49,0.552-1.451,2.759-2.349,4.97h-75.884h-1.1c-1.313,0-3.666,0-3.666,2.489v0.755h-154.24    c-0.075-2.895-0.348-4.696-2.626-4.696h-3.453l-2.757-5.518c-7.53,0-11.88,4.002-13.261,5.518h-0.554    c-0.28,0-0.692,0.075-1.107,0.556c-0.763,0.688-1.175,2.278-1.519,4.141h-7.388c-2.417,0-3.726,5.8-3.726,11.529    c0,5.664,1.309,11.463,3.726,11.463h6.973v14.086h0.625v8.489c0,3.46,0,6.979,2.072,9.049c1.033,1.032,2.551,1.59,4.556,1.59    h18.917c0.138,2.065,0.554,3.451,1.242,4.21c0.067,0.071,0.139,0.071,0.209,0.137c0,0,0,0,0.063,0l0.209,0.208h0.071    c0.277,0.137,0.554,0.273,0.901,0.273h58.272h13.668c0.071,0,0.071,0,0.135,0c0.348,0,0.692,0,1.107,0    c5.458,0.142,14.57,1.524,21.614,7.871c3.176,2.833,5.66,6.494,7.384,10.771c3.112,7.186,2.903,12.849,2.697,18.301    c-0.071,0.623-0.071,1.24-0.071,1.867c-0.202,6.423,0.416,7.866,7.598,10.145c0.617,0.206,1.373,0.486,2.207,0.763    c8.147,2.626,23.267,7.459,31.759,7.459h10.84c2.555,0,6.629-1.036,10.908-2.144c4.496-1.174,9.116-2.345,12.086-2.345    c1.451,0,2.761,0.139,4.007,0.411c6.213,1.246,10.286,5.937,12.015,13.945c0.617,2.761,1.657,6.427,2.828,10.571    c4.351,15.393,10.911,38.593,7.53,55.924c-0.49,2.068-0.214,3.796,0.89,5.177c0.482,0.621,1.111,1.179,1.935,1.661    c0,1.305,0,3.587,0,5.248c0,2.479,1.862,5.383,10.979,5.383c9.19,0,49.164-2.487,52.546-2.487c2.555,0,2.21-3.797,1.934-5.521    c0.415,0,0.76,0,1.171,0c0.419,1.862,1.87,6.423,7.186,6.423c5.319,0,7.253-4.561,7.8-6.494c0.486,0,0.759,0,0.826,0h0.834v-1.455    c0.479,0.071,1.097,0.143,1.725,0.143l0,0c2.484,0,3.314-1.033,3.588-1.935c0-0.206,5.457-20.364-2.068-37.972    c-7.04-16.437-18.711-49.44-23.96-67.944c-2.551-8.837-1.59-17.052,2.761-22.985c3.936-5.461,10.354-8.639,18.09-8.983    c8.354,0.208,9.662-3.378,9.805-4.904C427.136,210.805,425.557,208.527,423.549,208.108L423.549,208.108z M392.965,167.172    L392.965,167.172c0.134-1.246,1.241-2.278,2.555-2.278c1.38,0,2.551,1.169,2.551,2.623c0,1.311-0.961,2.343-2.274,2.551    C394.273,169.859,393.099,168.688,392.965,167.172L392.965,167.172z M399.249,167.172L399.249,167.172    c-0.139-1.797-1.59-3.316-3.453-3.453c0.139,0,0.202,0,0.345,0c1.728,0,3.176,1.373,3.176,3.174    C399.316,166.964,399.249,167.101,399.249,167.172L399.249,167.172z M235.47,239.25L235.47,239.25v-1.169    c0-6.834,6.142-11.808,11.394-13.945c2.555-1.107,5.173-1.659,7.526-1.659H276c1.313,4.485,6.004,26.163-16.709,34.315    c0,0-4.422,2.207,2.487,1.792c6.905-0.48,20.024-11.944,19.743-18.438l2.693-1.857l1.104-11.742c0,0,4.007-2.48,5.387-4.07    c9.879,0.137,17.401,4.21,20.645,11.323c3.247,7.18,1.448,16.362-4.627,23.336c-0.273,0.272-0.617,0.619-0.961,0.967    c-6.079,6.144-16.646,9.525-29.694,9.525c-9.112,0-18.92-1.725-26.237-4.488C235.399,257.547,235.47,248.227,235.47,239.25    L235.47,239.25z M387.78,164.267L387.78,164.267l0.074,0.137C387.854,164.338,387.78,164.338,387.78,164.267L387.78,164.267    L387.78,164.267z M407.74,361.879L407.74,361.879c-2.282,0-2.971-1.938-3.104-2.761c2.479,0,4.69,0,6.482,0    C410.845,359.941,410.019,361.879,407.74,361.879L407.74,361.879z" style="fill:#262626;"/></g></g><g id="Layer_1"/></svg>